# xmcd
#
# Track frame offsets: 
#        150
#        28769
#        57639
#        86816
#        107191
#        122095
#        138942
#        164625
#        183547
#        214235
#        229715
#        255253
#        258392
#        259206
#        271110
#        285236
#        300953
#        310379
#        323868
#        336905
#
# Disc length: 4510 seconds
#
# Revision: 0
# Processed by: cddbd v1.5.2PL0 Copyright (c) Steve Scherf et al.
# Submitted via: ExactAudioCopyFreeDBPlugin 1.0
#
DISCID=28119c14
DTITLE=Billie Holiday - The Ben Webster,Harry Edison Sessions [CD2)
DYEAR=1957
DGENRE=Jazz
TTITLE0=Darn That Dream
TTITLE1=Body And Soul
TTITLE2=Just Friends
TTITLE3=Stars Fell on Alabama
TTITLE4=Say It Isn't So
TTITLE5=Love Is Here to Stay
TTITLE6=One fo My Baby (and One More for the Road)
TTITLE7=They Can't Take That Away from Me
TTITLE8=Embreceable You
TTITLE9=Let's Call the Whole Thing Off
TTITLE10=Gee, Baby, Ain't I Good to You
TTITLE11=Announcement by Johnny Mercer
TTITLE12=Lady Be Good (Theme)
TTITLE13=Nice Work if You Can Get It
TTITLE14=Willow, Weep fo Me
TTITLE15=My Man
TTITLE16=Lover, Come Back to Me
TTITLE17=Lady Sings the Blues
TTITLE18=What a Little Moonlight Can Do
TTITLE19=Lady Be Good (The and Closing Announcements)
EXTD=
EXTT0=
EXTT1=
EXTT2=
EXTT3=
EXTT4=
EXTT5=
EXTT6=
EXTT7=
EXTT8=
EXTT9=
EXTT10=
EXTT11=
EXTT12=
EXTT13=
EXTT14=
EXTT15=
EXTT16=
EXTT17=
EXTT18=
EXTT19=
PLAYORDER=
